{
	"asset":{
		"generator":"Khronos glTF Blender I/O v4.3.47",
		"version":"2.0"
	},
	"scene":0,
	"scenes":[
		{
			"name":"Scene",
			"nodes":[
				1
			]
		}
	],
	"nodes":[
		{
			"mesh":0,
			"name":"American Football ball 2"
		},
		{
			"children":[
				0
			],
			"mesh":1,
			"name":"American Football ball 1"
		}
	],
	"materials":[
		{
			"doubleSided":true,
			"name":"Material.003",
			"pbrMetallicRoughness":{
				"baseColorFactor":[
					0.8000000715255737,
					0.7009735107421875,
					0.5799106359481812,
					1
				],
				"metallicFactor":0,
				"roughnessFactor":0.5
			}
		},
		{
			"doubleSided":true,
			"name":"Material.001",
			"pbrMetallicRoughness":{
				"metallicFactor":0,
				"roughnessFactor":0.5
			}
		},
		{
			"doubleSided":true,
			"name":"Material.002",
			"pbrMetallicRoughness":{
				"metallicFactor":0,
				"roughnessFactor":0.5
			}
		}
	],
	"meshes":[
		{
			"name":"BezierCurve",
			"primitives":[
				{
					"attributes":{
						"POSITION":0,
						"NORMAL":1,
						"TEXCOORD_0":2
					},
					"indices":3,
					"material":0
				}
			]
		},
		{
			"name":"Cylinder",
			"primitives":[
				{
					"attributes":{
						"POSITION":4,
						"NORMAL":5,
						"TEXCOORD_0":6
					},
					"indices":7,
					"material":1
				},
				{
					"attributes":{
						"POSITION":8,
						"NORMAL":9,
						"TEXCOORD_0":10
					},
					"indices":11,
					"material":2
				}
			]
		}
	],
	"accessors":[
		{
			"bufferView":0,
			"componentType":5126,
			"count":2483,
			"max":[
				0.07723813503980637,
				0.0792684406042099,
				0.09586123377084732
			],
			"min":[
				-0.09113125503063202,
				-0.06473127007484436,
				0.04340888559818268
			],
			"type":"VEC3"
		},
		{
			"bufferView":1,
			"componentType":5126,
			"count":2483,
			"type":"VEC3"
		},
		{
			"bufferView":2,
			"componentType":5126,
			"count":2483,
			"type":"VEC2"
		},
		{
			"bufferView":3,
			"componentType":5123,
			"count":7494,
			"type":"SCALAR"
		},
		{
			"bufferView":4,
			"componentType":5126,
			"count":880,
			"max":[
				0.12121345847845078,
				0.11647798120975494,
				0.09419413655996323
			],
			"min":[
				-0.1297561526298523,
				-0.11647798120975494,
				-0.09419413655996323
			],
			"type":"VEC3"
		},
		{
			"bufferView":5,
			"componentType":5126,
			"count":880,
			"type":"VEC3"
		},
		{
			"bufferView":6,
			"componentType":5126,
			"count":880,
			"type":"VEC2"
		},
		{
			"bufferView":7,
			"componentType":5123,
			"count":4128,
			"type":"SCALAR"
		},
		{
			"bufferView":8,
			"componentType":5126,
			"count":192,
			"max":[
				0.12121345847845078,
				0.11647798120975494,
				0.08470849692821503
			],
			"min":[
				-0.1297561526298523,
				-0.11647798120975494,
				-0.08470849692821503
			],
			"type":"VEC3"
		},
		{
			"bufferView":9,
			"componentType":5126,
			"count":192,
			"type":"VEC3"
		},
		{
			"bufferView":10,
			"componentType":5126,
			"count":192,
			"type":"VEC2"
		},
		{
			"bufferView":11,
			"componentType":5123,
			"count":528,
			"type":"SCALAR"
		}
	],
	"bufferViews":[
		{
			"buffer":0,
			"byteLength":29796,
			"byteOffset":0,
			"target":34962
		},
		{
			"buffer":0,
			"byteLength":29796,
			"byteOffset":29796,
			"target":34962
		},
		{
			"buffer":0,
			"byteLength":19864,
			"byteOffset":59592,
			"target":34962
		},
		{
			"buffer":0,
			"byteLength":14988,
			"byteOffset":79456,
			"target":34963
		},
		{
			"buffer":0,
			"byteLength":10560,
			"byteOffset":94444,
			"target":34962
		},
		{
			"buffer":0,
			"byteLength":10560,
			"byteOffset":105004,
			"target":34962
		},
		{
			"buffer":0,
			"byteLength":7040,
			"byteOffset":115564,
			"target":34962
		},
		{
			"buffer":0,
			"byteLength":8256,
			"byteOffset":122604,
			"target":34963
		},
		{
			"buffer":0,
			"byteLength":2304,
			"byteOffset":130860,
			"target":34962
		},
		{
			"buffer":0,
			"byteLength":2304,
			"byteOffset":133164,
			"target":34962
		},
		{
			"buffer":0,
			"byteLength":1536,
			"byteOffset":135468,
			"target":34962
		},
		{
			"buffer":0,
			"byteLength":1056,
			"byteOffset":137004,
			"target":34963
		}
	],
	"buffers":[
		{
			"byteLength":138060,
			"uri":"American_Football_ball.bin"
		}
	]
}
